IKResults
version=1
nRows=10
nColumns=40
inDegrees=yes

Units are S.I. units (second, meters, Newtons, ...)
Angles are in degrees.

endheader
time	pelvis_tilt	pelvis_list	pelvis_rotation	pelvis_tx	pelvis_ty	pelvis_tz	hip_flexion_r	hip_adduction_r	hip_rotation_r	knee_angle_r	knee_angle_r_beta	ankle_angle_r	subtalar_angle_r	mtp_angle_r	hip_flexion_l	hip_adduction_l	hip_rotation_l	knee_angle_l	knee_angle_l_beta	ankle_angle_l	subtalar_angle_l	mtp_angle_l	lumbar_extension	lumbar_bending	lumbar_rotation	arm_flex_r	arm_add_r	arm_rot_r	elbow_flex_r	pro_sup_r	wrist_flex_r	wrist_dev_r	arm_flex_l	arm_add_l	arm_rot_l	elbow_flex_l	pro_sup_l	wrist_flex_l	wrist_dev_l
      0.72000000	     15.40677210	     -3.74430634	      5.22640870	      0.17244760	      0.92288867	      0.96834552	      7.57713945	      3.98158088	    -21.99029198	    -22.18302606	     -0.38716684	     -2.11737730	     -5.74535900	     -5.24099397	    -27.93664149	      4.66611285	      1.32081317	    -30.45579507	     -0.53155390	      5.09492072	      8.84302252	     -5.67563158	    -20.55726213	      4.58803448	     -6.60759809	    -17.66843502	    -11.17335565	     -9.16142575	     19.68980632	     89.95437384	      0.00000000	      0.00000000	      0.14068007	     14.45569387	      9.13908001	     66.58353940	     89.95437384	      0.00000000	      0.00000000
      0.73000000	     15.36456729	     -4.27930856	      4.93800151	      0.18657841	      0.92353660	      0.96980077	      7.54066179	      5.09045949	    -19.25558531	    -23.27830097	     -0.40628300	     -2.34551756	     -9.09478370	     -4.01406656	    -27.26234372	      5.19476722	      1.58705767	    -32.85865108	     -0.57349165	      2.31589663	      9.51309690	     -5.21797472	    -20.41162252	      5.11147366	     -6.10547678	    -17.52020933	    -11.37710964	     -9.36552371	     19.51733256	     89.95437384	      0.00000000	      0.00000000	     -0.40293919	     14.07899738	      9.49724448	     66.95069714	     89.95437384	      0.00000000	      0.00000000
      0.74000000	     15.65190670	     -4.54467799	      4.99303112	      0.20111188	      0.92482742	      0.97052775	      6.92785896	      5.60870026	    -18.23185165	    -24.47692724	     -0.42720297	     -1.29188269	     -9.02160394	     -3.90787943	    -26.73124117	      5.66992406	      1.65864966	    -35.36952385	     -0.61731465	     -1.09927102	     10.03525364	     -4.80388389	    -20.54809267	      5.48439826	     -5.89209838	    -17.53321702	    -11.56328709	     -9.40142848	     19.63647907	     89.95437384	      0.00000000	      0.00000000	     -0.88807316	     13.76200806	      9.62564388	     66.98942421	     89.95437384	      0.00000000	      0.00000000
      0.75000000	     15.93930942	     -5.20688446	      4.87677925	      0.21551200	      0.92649731	      0.97201771	      5.92231510	      6.96797556	    -16.29361407	    -24.68277057	     -0.43079561	     -1.03028782	    -11.36661821	     -1.79373523	    -26.02706868	      6.54314894	      1.87558869	    -37.98037158	     -0.66288254	     -4.29526102	     10.47533522	     -4.20896097	    -20.68513017	      6.17296617	     -5.36658256	    -17.38720970	    -11.71806561	     -9.73764593	     19.60513637	     89.95437384	      0.00000000	      0.00000000	     -1.30800851	     13.35992858	      9.78898107	     66.69605162	     89.95437384	      0.00000000	      0.00000000
      0.76000000	     16.28825101	     -5.20353283	      4.90927725	      0.22974610	      0.92825912	      0.97270433	      4.87579013	      7.18555521	    -15.74072043	    -25.29313546	     -0.44144849	     -0.06979208	    -11.45829054	     -1.63475064	    -25.28715548	      6.64103164	      1.27078938	    -40.56824747	     -0.70804949	     -6.74578221	     10.73170010	     -3.94627416	    -20.92513418	      6.22856412	     -5.21042036	    -17.24134760	    -11.86206320	     -9.76915227	     19.81659817	     89.95437384	      0.00000000	      0.00000000	     -1.69481209	     13.05674417	      9.87517643	     66.16153757	     89.95437384	      0.00000000	      0.00000000
      0.77000000	     16.38174101	     -5.35473223	      4.93312559	      0.24342780	      0.92968748	      0.97370554	      3.93818298	      7.64530578	    -15.15961749	    -25.49796301	     -0.44502341	      0.86274559	    -11.61657597	     -1.28318779	    -24.00563986	      6.79470229	      0.42293745	    -43.45401511	     -0.75841564	     -9.13575220	     11.17893836	     -3.66559689	    -20.94018536	      6.41527715	     -4.96271569	    -17.03456824	    -11.97018753	     -9.85396981	     19.99532417	     89.95437384	      0.00000000	      0.00000000	     -2.03456575	     12.69445260	     10.00165845	     65.45088612	     89.95437384	      0.00000000	      0.00000000
      0.78000000	     16.54259182	     -5.29800024	      5.00519969	      0.25684183	      0.93132834	      0.97466129	      2.74767752	      7.85453806	    -14.84618478	    -25.43872516	     -0.44398951	      1.79128308	    -11.59059987	     -1.04360980	    -22.65571295	      6.73571814	     -0.48041443	    -46.37435521	     -0.80938519	    -11.12348751	     11.61130094	     -3.46522958	    -21.05693172	      6.37057218	     -4.81442352	    -16.78736632	    -12.01745547	     -9.96365973	     20.37817778	     89.95437384	      0.00000000	      0.00000000	     -2.26626832	     12.40395511	     10.04119159	     64.47144982	     89.95437384	      0.00000000	      0.00000000
      0.79000000	     16.47219127	     -5.40849931	      5.34704253	      0.26979901	      0.93260077	      0.97534725	      1.76678813	      8.17133986	    -15.06704722	    -25.16436277	     -0.43920098	      2.44332066	    -11.60631220	     -0.26185991	    -20.76598707	      6.87867829	     -1.58112974	    -49.44079410	     -0.86290464	    -12.61560648	     12.65225934	     -3.25605114	    -20.93973077	      6.55653788	     -4.90330963	    -16.45548661	    -12.06319993	    -10.13683146	     20.72571101	     89.95437384	      0.00000000	      0.00000000	     -2.48729338	     12.14403320	     10.04890259	     63.36825801	     89.95437384	      0.00000000	      0.00000000
      0.80000000	     16.57926505	     -5.34390916	      5.63402584	      0.28275556	      0.93421279	      0.97607894	      0.50984149	      8.33505184	    -15.18932062	    -24.80850044	     -0.43299002	      3.28080576	    -11.26192895	      0.20358714	    -19.25148601	      6.75733153	     -2.59448129	    -51.98243390	     -0.90726462	    -12.83205876	     13.72676583	     -3.08462053	    -21.00901700	      6.52516650	     -4.90903223	    -16.14761564	    -12.07081914	    -10.17952551	     21.19749873	     89.95437384	      0.00000000	      0.00000000	     -2.66262987	     11.89511425	     10.05030268	     62.09219351	     89.95437384	      0.00000000	      0.00000000
      0.81000000	     16.69773341	     -5.12614229	      5.75592474	      0.29546004	      0.93605680	      0.97666030	     -0.85771738	      8.29831521	    -15.23656837	    -24.25813787	     -0.42338438	      4.06757204	    -10.82223122	      0.34072358	    -17.86624537	      6.34155050	     -3.39505862	    -54.16290897	     -0.94532109	    -11.57441384	     14.39113872	     -3.01666252	    -21.12142131	      6.30569668	     -4.87081072	    -15.76137841	    -12.13581423	    -10.07382351	     21.70479467	     89.95437384	      0.00000000	      0.00000000	     -2.71860363	     11.60226164	     10.03949873	     60.43608952	     89.95437384	      0.00000000	      0.00000000
